<?xml version="1.0" standalone="no"?>
<!DOCTYPE svg PUBLIC "-//W3C//DTD SVG 20010904//EN"
 "http://www.w3.org/TR/2001/REC-SVG-20010904/DTD/svg10.dtd">
<svg version="1.0" xmlns="http://www.w3.org/2000/svg"
 width="500.000000pt" height="500.000000pt" viewBox="0 0 500.000000 500.000000"
 preserveAspectRatio="xMidYMid meet">

<g transform="translate(0.000000,500.000000) scale(0.100000,-0.100000)"
fill="#000000" stroke="none">
<path d="M40 3390 l0 -120 160 0 160 0 0 -40 0 -40 -160 0 -160 0 0 -40 0 -40
200 0 201 0 -3 118 -3 117 -157 3 -158 3 0 39 0 40 161 0 160 0 -3 38 -3 37
-197 3 -198 2 0 -120z"/>
<path d="M517 3503 c-4 -3 -7 -93 -7 -200 l0 -193 40 0 40 0 0 80 0 80 120 0
120 0 0 -80 0 -80 40 0 40 0 0 200 0 200 -40 0 -40 0 0 -80 0 -80 -120 0 -120
0 0 80 0 80 -33 0 c-19 0 -37 -3 -40 -7z"/>
<path d="M990 3310 l0 -200 200 0 200 0 0 200 0 200 -200 0 -200 0 0 -200z
m320 0 l0 -120 -120 0 -120 0 0 120 0 120 120 0 120 0 0 -120z"/>
<path d="M1470 3310 l0 -200 40 0 40 0 0 80 0 80 155 0 155 0 0 120 0 120
-195 0 -195 0 0 -200z m310 80 l0 -40 -115 0 -115 0 0 40 0 40 115 0 115 0 0
-40z"/>
<path d="M1940 3310 l0 -200 40 0 40 0 0 200 0 200 -40 0 -40 0 0 -200z"/>
<path d="M2100 3310 l0 -200 40 0 40 0 0 80 0 80 160 0 160 0 0 40 0 40 -160
0 -160 0 0 40 0 40 160 0 160 0 0 40 0 40 -200 0 -200 0 0 -200z"/>
<path d="M2580 3391 l0 -121 155 0 155 0 0 -40 0 -40 -155 0 -155 0 0 -40 0
-40 195 0 195 0 0 201 0 200 -37 -3 -38 -3 -3 -77 -3 -78 -114 0 -114 0 -3 78
-3 77 -37 3 -38 3 0 -120z"/>
</g>
</svg>
