<?xml version="1.0" standalone="no"?>
<!DOCTYPE svg PUBLIC "-//W3C//DTD SVG 20010904//EN"
 "http://www.w3.org/TR/2001/REC-SVG-20010904/DTD/svg10.dtd">
<svg version="1.0" xmlns="http://www.w3.org/2000/svg"
 width="500.000000pt" height="500.000000pt" viewBox="0 0 500.000000 500.000000"
 preserveAspectRatio="xMidYMid meet">

<g transform="translate(0.000000,500.000000) scale(0.100000,-0.100000)"
fill="#000000" stroke="none">
<path d="M70 3190 l0 -200 260 0 260 0 0 -65 0 -65 -260 0 -260 0 0 -65 0 -65
325 0 325 0 0 195 0 195 -260 0 -260 0 0 70 0 70 260 0 260 0 0 65 0 65 -325
0 -325 0 0 -200z"/>
<path d="M860 3060 l0 -330 65 0 65 0 0 130 0 130 195 0 195 0 0 -130 0 -130
65 0 65 0 0 330 0 330 -65 0 -65 0 0 -135 0 -135 -195 0 -195 0 0 135 0 135
-65 0 -65 0 0 -330z"/>
<path d="M1650 3060 l0 -330 325 0 325 0 0 330 0 330 -325 0 -325 0 0 -330z
m520 0 l0 -200 -195 0 -195 0 0 200 0 200 195 0 195 0 0 -200z"/>
<path d="M2430 3060 l0 -330 65 0 65 0 0 130 0 130 265 0 265 0 0 200 0 200
-330 0 -330 0 0 -330z m530 130 l0 -70 -197 2 -198 3 -3 54 c-2 29 -1 60 2 67
4 11 45 14 201 14 l195 0 0 -70z"/>
<path d="M3220 3060 l0 -330 65 0 65 0 0 330 0 330 -65 0 -65 0 0 -330z"/>
<path d="M3490 3060 l0 -330 65 0 65 0 0 130 0 130 260 0 260 0 0 65 0 65
-260 0 -260 0 0 70 0 70 260 0 260 0 0 65 0 65 -325 0 -325 0 0 -330z"/>
<path d="M4280 3190 l0 -200 260 0 260 0 0 -65 0 -65 -260 0 -260 0 0 -65 0
-65 325 0 325 0 0 330 0 330 -65 0 -65 0 0 -135 0 -135 -195 0 -195 0 0 135 0
135 -65 0 -65 0 0 -200z"/>
</g>
</svg>
